<?xml version="1.0" encoding="UTF-8"?>
<svg width="1200pt" height="1200pt" version="1.1" viewBox="0 0 1200 1200" xmlns="http://www.w3.org/2000/svg">
 <path d="m1012.5 637.5v318.84c0 72.281-58.875 131.16-131.16 131.16h-637.69c-72.281 0-131.16-58.875-131.16-131.16v-618.94c0-72.281 58.875-131.16 131.16-131.16h318.84c20.719 0 37.5 16.781 37.5 37.5s-16.781 37.5-37.5 37.5h-318.84c-30.938 0-56.156 25.219-56.156 56.156v618.94c0 30.938 25.219 56.156 56.156 56.156h637.69c30.938 0 56.156-25.219 56.156-56.156v-318.84c0-20.719 16.781-37.5 37.5-37.5s37.5 16.781 37.5 37.5zm74.25-494.81c-0.1875-1.125-0.65625-2.1562-0.9375-3.1875-0.375-1.3125-0.65625-2.5312-1.2188-3.8438s-1.2188-2.4375-1.875-3.6562c-0.5625-0.9375-0.9375-1.9688-1.5-2.8125-2.7188-4.125-6.2812-7.6875-10.406-10.406-0.9375-0.65625-1.9688-1.0312-2.9062-1.5938-1.125-0.65625-2.3438-1.3125-3.5625-1.875s-2.5312-0.84375-3.8438-1.2188c-1.0312-0.28125-2.0625-0.75-3.1875-0.9375-2.3438-0.375-4.875-0.65625-7.3125-0.65625h-300c-20.719 0-37.5 16.781-37.5 37.5s16.781 37.5 37.5 37.5h209.44l-460.97 460.97c-14.625 14.625-14.625 38.344 0 53.062 7.3125 7.3125 16.969 10.969 26.531 10.969s19.219-3.6562 26.531-10.969l460.97-460.97v209.44c0 20.719 16.781 37.5 37.5 37.5s37.5-16.781 37.5-37.5v-300c0-2.4375-0.28125-4.875-0.75-7.3125z"/>
</svg>
