<?xml version="1.0" encoding="UTF-8"?>
<svg width="1200pt" height="1200pt" version="1.1" viewBox="0 0 1200 1200" xmlns="http://www.w3.org/2000/svg">
 <path d="m48.516 1041.7 300.42-300.42-57.047-57.047c-5.0625-5.0625-6.7031-12.141-4.3125-18.938 2.3438-6.7969 8.0625-11.297 15.188-12.141l252.56-28.734c5.7188-0.65625 10.922 1.1719 15 5.25s5.8594 9.2812 5.25 15l-28.734 252.56c-0.79688 7.125-5.3438 12.797-12.141 15.188-6.7969 2.3438-13.875 0.75-18.938-4.3125l-57.047-57.047-300.42 300.42c-10.453 10.453-27.562 10.453-37.969 0l-71.766-71.766c-10.453-10.453-10.453-27.562 0-37.969zm1103-921.37-71.766-71.766c-10.453-10.453-27.562-10.453-37.969 0l-300.42 300.42-57.047-57.047c-5.0625-5.0625-12.141-6.7031-18.938-4.3125-6.7969 2.3438-11.297 8.0625-12.141 15.188l-28.734 252.56c-0.65625 5.7188 1.1719 10.922 5.25 15 4.0781 4.0781 9.2812 5.8594 15 5.25l252.56-28.734c7.125-0.79688 12.797-5.3438 15.188-12.141 2.3438-6.7969 0.75-13.875-4.3125-18.938l-57.047-57.047 300.42-300.42c10.453-10.453 10.453-27.562 0-37.969z" fill-rule="evenodd"/>
</svg>
